<svg width="4150" height="950" viewBox="0 0 4150 950" fill="none" xmlns="http://www.w3.org/2000/svg">
<rect width="4150" height="950" rx="30" fill="#4B3FD5"/>
<path d="M1179.58 646.675C1148.78 646.675 1124.98 638.8 1108.17 623.05C1091.38 606.95 1082.98 583.325 1082.98 552.175V300.7H1148.6V550.6C1148.6 563.9 1151.93 574.225 1158.58 581.575C1165.58 588.925 1175.2 592.6 1187.45 592.6C1202.15 592.6 1214.4 588.75 1224.2 581.05L1242.58 627.775C1234.88 634.075 1225.43 638.8 1214.23 641.95C1203.03 645.1 1191.48 646.675 1179.58 646.675ZM1036.78 417.25V364.75H1223.68V417.25H1036.78ZM1419.11 646.675C1387.96 646.675 1360.66 640.55 1337.21 628.3C1314.11 615.7 1296.08 598.55 1283.13 576.85C1270.53 555.15 1264.23 530.475 1264.23 502.825C1264.23 474.825 1270.36 450.15 1282.61 428.8C1295.21 407.1 1312.36 390.125 1334.06 377.875C1356.11 365.625 1381.13 359.5 1409.13 359.5C1436.43 359.5 1460.76 365.45 1482.11 377.35C1503.46 389.25 1520.26 406.05 1532.51 427.75C1544.76 449.45 1550.88 475 1550.88 504.4C1550.88 507.2 1550.71 510.35 1550.36 513.85C1550.36 517.35 1550.18 520.675 1549.83 523.825H1316.21V480.25H1515.18L1489.46 493.9C1489.81 477.8 1486.48 463.625 1479.48 451.375C1472.48 439.125 1462.86 429.5 1450.61 422.5C1438.71 415.5 1424.88 412 1409.13 412C1393.03 412 1378.86 415.5 1366.61 422.5C1354.71 429.5 1345.26 439.3 1338.26 451.9C1331.61 464.15 1328.28 478.675 1328.28 495.475V505.975C1328.28 522.775 1332.13 537.65 1339.83 550.6C1347.53 563.55 1358.38 573.525 1372.38 580.525C1386.38 587.525 1402.48 591.025 1420.68 591.025C1436.43 591.025 1450.61 588.575 1463.21 583.675C1475.81 578.775 1487.01 571.075 1496.81 560.575L1531.98 601C1519.38 615.7 1503.46 627.075 1484.21 635.125C1465.31 642.825 1443.61 646.675 1419.11 646.675ZM1700.54 646.675C1677.09 646.675 1654.52 643.7 1632.82 637.75C1611.47 631.45 1594.49 623.925 1581.89 615.175L1607.09 565.3C1619.69 573.35 1634.74 580 1652.24 585.25C1669.74 590.5 1687.24 593.125 1704.74 593.125C1725.39 593.125 1740.27 590.325 1749.37 584.725C1758.82 579.125 1763.54 571.6 1763.54 562.15C1763.54 554.45 1760.39 548.675 1754.09 544.825C1747.79 540.625 1739.57 537.475 1729.42 535.375C1719.27 533.275 1707.89 531.35 1695.29 529.6C1683.04 527.85 1670.62 525.575 1658.02 522.775C1645.77 519.625 1634.57 515.25 1624.42 509.65C1614.27 503.7 1606.04 495.825 1599.74 486.025C1593.44 476.225 1590.29 463.275 1590.29 447.175C1590.29 429.325 1595.37 413.925 1605.52 400.975C1615.67 387.675 1629.84 377.525 1648.04 370.525C1666.59 363.175 1688.47 359.5 1713.67 359.5C1732.57 359.5 1751.64 361.6 1770.89 365.8C1790.14 370 1806.07 375.95 1818.67 383.65L1793.47 433.525C1780.17 425.475 1766.69 420.05 1753.04 417.25C1739.74 414.1 1726.44 412.525 1713.14 412.525C1693.19 412.525 1678.32 415.5 1668.52 421.45C1659.07 427.4 1654.34 434.925 1654.34 444.025C1654.34 452.425 1657.49 458.725 1663.79 462.925C1670.09 467.125 1678.32 470.45 1688.47 472.9C1698.62 475.35 1709.82 477.45 1722.07 479.2C1734.67 480.6 1747.09 482.875 1759.34 486.025C1771.59 489.175 1782.79 493.55 1792.94 499.15C1803.44 504.4 1811.84 511.925 1818.14 521.725C1824.44 531.525 1827.59 544.3 1827.59 560.05C1827.59 577.55 1822.34 592.775 1811.84 605.725C1801.69 618.675 1787.17 628.825 1768.27 636.175C1749.37 643.175 1726.79 646.675 1700.54 646.675ZM1989.63 646.675C1958.83 646.675 1935.03 638.8 1918.23 623.05C1901.43 606.95 1893.03 583.325 1893.03 552.175V300.7H1958.66V550.6C1958.66 563.9 1961.98 574.225 1968.63 581.575C1975.63 588.925 1985.26 592.6 1997.51 592.6C2012.21 592.6 2024.46 588.75 2034.26 581.05L2052.63 627.775C2044.93 634.075 2035.48 638.8 2024.28 641.95C2013.08 645.1 2001.53 646.675 1989.63 646.675ZM1846.83 417.25V364.75H2033.73V417.25H1846.83Z" fill="white"/>
<path d="M2318.1 746.525C2292.2 746.525 2266.83 743.025 2241.98 736.025C2217.48 729.375 2197.35 719.575 2181.6 706.625L2211 657.275C2223.25 667.425 2238.65 675.475 2257.2 681.425C2276.1 687.725 2295.18 690.875 2314.43 690.875C2345.23 690.875 2367.8 683.7 2382.15 669.35C2396.5 655.35 2403.68 634.175 2403.68 605.825V555.95L2408.93 492.425L2406.83 428.9V360.65H2469.3V598.475C2469.3 649.225 2456.35 686.5 2430.45 710.3C2404.55 734.45 2367.1 746.525 2318.1 746.525ZM2309.7 628.4C2283.1 628.4 2258.95 622.8 2237.25 611.6C2215.9 600.05 2198.93 584.125 2186.33 563.825C2174.08 543.525 2167.95 519.725 2167.95 492.425C2167.95 465.475 2174.08 441.85 2186.33 421.55C2198.93 401.25 2215.9 385.5 2237.25 374.3C2258.95 363.1 2283.1 357.5 2309.7 357.5C2333.5 357.5 2354.85 362.225 2373.75 371.675C2392.65 381.125 2407.7 395.825 2418.9 415.775C2430.45 435.725 2436.23 461.275 2436.23 492.425C2436.23 523.575 2430.45 549.3 2418.9 569.6C2407.7 589.55 2392.65 604.425 2373.75 614.225C2354.85 623.675 2333.5 628.4 2309.7 628.4ZM2319.68 572.75C2336.13 572.75 2350.83 569.425 2363.78 562.775C2376.73 555.775 2386.7 546.325 2393.7 534.425C2401.05 522.175 2404.73 508.175 2404.73 492.425C2404.73 476.675 2401.05 462.85 2393.7 450.95C2386.7 438.7 2376.73 429.425 2363.78 423.125C2350.83 416.475 2336.13 413.15 2319.68 413.15C2303.23 413.15 2288.35 416.475 2275.05 423.125C2262.1 429.425 2251.95 438.7 2244.6 450.95C2237.6 462.85 2234.1 476.675 2234.1 492.425C2234.1 508.175 2237.6 522.175 2244.6 534.425C2251.95 546.325 2262.1 555.775 2275.05 562.775C2288.35 569.425 2303.23 572.75 2319.68 572.75ZM2687.35 644.675C2656.2 644.675 2628.9 638.55 2605.45 626.3C2582.35 613.7 2564.33 596.55 2551.38 574.85C2538.78 553.15 2532.48 528.475 2532.48 500.825C2532.48 472.825 2538.6 448.15 2550.85 426.8C2563.45 405.1 2580.6 388.125 2602.3 375.875C2624.35 363.625 2649.38 357.5 2677.38 357.5C2704.68 357.5 2729 363.45 2750.35 375.35C2771.7 387.25 2788.5 404.05 2800.75 425.75C2813 447.45 2819.13 473 2819.13 502.4C2819.13 505.2 2818.95 508.35 2818.6 511.85C2818.6 515.35 2818.43 518.675 2818.08 521.825H2584.45V478.25H2783.43L2757.7 491.9C2758.05 475.8 2754.73 461.625 2747.73 449.375C2740.73 437.125 2731.1 427.5 2718.85 420.5C2706.95 413.5 2693.13 410 2677.38 410C2661.28 410 2647.1 413.5 2634.85 420.5C2622.95 427.5 2613.5 437.3 2606.5 449.9C2599.85 462.15 2596.53 476.675 2596.53 493.475V503.975C2596.53 520.775 2600.38 535.65 2608.08 548.6C2615.78 561.55 2626.63 571.525 2640.63 578.525C2654.63 585.525 2670.73 589.025 2688.93 589.025C2704.68 589.025 2718.85 586.575 2731.45 581.675C2744.05 576.775 2755.25 569.075 2765.05 558.575L2800.23 599C2787.63 613.7 2771.7 625.075 2752.45 633.125C2733.55 640.825 2711.85 644.675 2687.35 644.675ZM3041.24 357.5C3063.64 357.5 3083.59 361.875 3101.09 370.625C3118.94 379.375 3132.94 392.85 3143.09 411.05C3153.24 428.9 3158.31 452 3158.31 480.35V641H3092.69V488.75C3092.69 463.9 3086.74 445.35 3074.84 433.1C3063.29 420.85 3047.01 414.725 3026.01 414.725C3010.61 414.725 2996.96 417.875 2985.06 424.175C2973.16 430.475 2963.89 439.925 2957.24 452.525C2950.94 464.775 2947.79 480.35 2947.79 499.25V641H2882.16V360.65H2944.64V436.25L2933.61 413.15C2943.41 395.3 2957.59 381.65 2976.14 372.2C2995.04 362.4 3016.74 357.5 3041.24 357.5ZM3241.56 641V360.65H3307.19V641H3241.56ZM3274.64 314.45C3262.39 314.45 3252.24 310.6 3244.19 302.9C3236.49 295.2 3232.64 285.925 3232.64 275.075C3232.64 263.875 3236.49 254.6 3244.19 247.25C3252.24 239.55 3262.39 235.7 3274.64 235.7C3286.89 235.7 3296.86 239.375 3304.56 246.725C3312.61 253.725 3316.64 262.65 3316.64 273.5C3316.64 285.05 3312.79 294.85 3305.09 302.9C3297.39 310.6 3287.24 314.45 3274.64 314.45ZM3511.97 644.675C3488.17 644.675 3467.17 640.3 3448.97 631.55C3430.77 622.45 3416.6 608.8 3406.45 590.6C3396.3 572.05 3391.22 548.775 3391.22 520.775V360.65H3456.85V511.85C3456.85 537.05 3462.45 555.95 3473.65 568.55C3485.2 580.8 3501.47 586.925 3522.47 586.925C3537.87 586.925 3551.17 583.775 3562.37 577.475C3573.92 571.175 3582.85 561.725 3589.15 549.125C3595.8 536.525 3599.12 520.95 3599.12 502.4V360.65H3664.75V641H3602.27V565.4L3613.3 588.5C3603.85 606.7 3590.02 620.7 3571.82 630.5C3553.62 639.95 3533.67 644.675 3511.97 644.675ZM3837.29 644.675C3813.84 644.675 3791.27 641.7 3769.57 635.75C3748.22 629.45 3731.24 621.925 3718.64 613.175L3743.84 563.3C3756.44 571.35 3771.49 578 3788.99 583.25C3806.49 588.5 3823.99 591.125 3841.49 591.125C3862.14 591.125 3877.02 588.325 3886.12 582.725C3895.57 577.125 3900.29 569.6 3900.29 560.15C3900.29 552.45 3897.14 546.675 3890.84 542.825C3884.54 538.625 3876.32 535.475 3866.17 533.375C3856.02 531.275 3844.64 529.35 3832.04 527.6C3819.79 525.85 3807.37 523.575 3794.77 520.775C3782.52 517.625 3771.32 513.25 3761.17 507.65C3751.02 501.7 3742.79 493.825 3736.49 484.025C3730.19 474.225 3727.04 461.275 3727.04 445.175C3727.04 427.325 3732.12 411.925 3742.27 398.975C3752.42 385.675 3766.59 375.525 3784.79 368.525C3803.34 361.175 3825.22 357.5 3850.42 357.5C3869.32 357.5 3888.39 359.6 3907.64 363.8C3926.89 368 3942.82 373.95 3955.42 381.65L3930.22 431.525C3916.92 423.475 3903.44 418.05 3889.79 415.25C3876.49 412.1 3863.19 410.525 3849.89 410.525C3829.94 410.525 3815.07 413.5 3805.27 419.45C3795.82 425.4 3791.09 432.925 3791.09 442.025C3791.09 450.425 3794.24 456.725 3800.54 460.925C3806.84 465.125 3815.07 468.45 3825.22 470.9C3835.37 473.35 3846.57 475.45 3858.82 477.2C3871.42 478.6 3883.84 480.875 3896.09 484.025C3908.34 487.175 3919.54 491.55 3929.69 497.15C3940.19 502.4 3948.59 509.925 3954.89 519.725C3961.19 529.525 3964.34 542.3 3964.34 558.05C3964.34 575.55 3959.09 590.775 3948.59 603.725C3938.44 616.675 3923.92 626.825 3905.02 634.175C3886.12 641.175 3863.54 644.675 3837.29 644.675Z" fill="#00FF75"/>
<path fill-rule="evenodd" clip-rule="evenodd" d="M237.611 209.383C223.804 209.383 212.611 220.576 212.611 234.383V722.494C212.611 736.301 223.804 747.494 237.611 747.494H725.722C739.529 747.494 750.722 736.301 750.722 722.494V234.383C750.722 220.576 739.529 209.383 725.722 209.383H237.611ZM308.328 290.1C300.044 290.1 293.328 296.816 293.328 305.1V651.777C293.328 660.062 300.044 666.777 308.328 666.777H655.006C663.29 666.777 670.006 660.062 670.006 651.777V305.1C670.006 296.816 663.29 290.1 655.006 290.1H308.328Z" fill="#00FF75"/>
<path fill-rule="evenodd" clip-rule="evenodd" d="M230.004 346.081C217.147 331.647 195.023 330.369 180.589 343.227C173.759 349.311 169.875 357.47 169.04 365.908L230.133 368.933L169 372.405C169.628 379.662 172.518 386.785 177.735 392.642L202.055 419.943H266.479C267.371 419.943 268.093 420.666 268.093 421.558C268.093 422.449 267.371 423.172 266.479 423.172H204.931L357.657 594.622L448.607 599.125L365.855 603.825L388.838 629.626C401.696 644.06 423.819 645.338 438.253 632.48C440.492 630.486 442.413 628.27 444.015 625.893L409.078 622.921L447.347 619.666C452.272 607.672 450.312 593.398 441.107 583.065L391.796 527.708L343.428 524.875L386.999 522.323L352.527 483.625L277.779 480.748L347.571 478.062L320.273 447.416L277.779 442.005L311.614 437.695L230.004 346.081Z" fill="#989898"/>
<path fill-rule="evenodd" clip-rule="evenodd" d="M537.914 531.472C501.659 566.464 474.267 596.851 458.82 618.69L409.08 622.921L453.451 626.695C443.111 642.955 421.559 647.804 405.247 637.515C393.064 629.831 387.241 615.871 389.332 602.49L448.608 599.123L390.905 596.266C391.758 593.853 392.892 591.497 394.315 589.24C412.98 559.646 447.723 521.236 489.301 481.105C506.593 464.415 525.401 447.111 545.252 429.63H606.566C607.457 429.63 608.18 428.907 608.18 428.016C608.18 427.124 607.457 426.402 606.566 426.402H548.928C571.596 406.544 595.569 386.494 620.155 366.892L679.203 362.477L629.924 359.153C631.954 357.555 633.987 355.961 636.023 354.371C652.123 341.798 668.469 329.431 684.87 317.455L726.564 315.013L691.089 312.935C726.934 287 762.929 263.037 797.09 242.953C810.263 235.208 823.409 227.89 836.371 221.192L912.843 218.806L845.231 216.697C878.986 199.896 911.236 187.65 939.175 183.402C952.129 181.433 964.503 186.835 972.036 196.472L936.427 199.861L976.372 203.662C977.64 206.489 978.55 209.532 979.038 212.744C981.944 231.854 968.807 249.702 949.697 252.607C933.055 255.137 911.275 262.736 885.469 274.975L844.949 277.348L876.75 279.211C863.007 286.04 848.229 294.088 832.568 303.296C831.725 303.791 830.881 304.289 830.036 304.79H794.905C794.013 304.79 793.291 305.513 793.291 306.404C793.291 307.296 794.013 308.019 794.905 308.019H824.626C778.366 335.833 727.957 371.392 679.107 409.541C647.001 434.614 615.779 460.642 587.074 486.087L517.778 488.822L581.19 491.326C565.916 504.987 551.406 518.449 537.914 531.472Z" fill="#989898"/>
</svg>
