<svg width="3809" height="642" viewBox="0 0 3809 642" fill="none" xmlns="http://www.w3.org/2000/svg">
<path d="M1010.58 513.675C979.775 513.675 955.975 505.8 939.175 490.05C922.375 473.95 913.975 450.325 913.975 419.175V167.7H979.6V417.6C979.6 430.9 982.925 441.225 989.575 448.575C996.575 455.925 1006.2 459.6 1018.45 459.6C1033.15 459.6 1045.4 455.75 1055.2 448.05L1073.58 494.775C1065.88 501.075 1056.43 505.8 1045.23 508.95C1034.03 512.1 1022.48 513.675 1010.58 513.675ZM867.775 284.25V231.75H1054.68V284.25H867.775ZM1250.11 513.675C1218.96 513.675 1191.66 507.55 1168.21 495.3C1145.11 482.7 1127.08 465.55 1114.13 443.85C1101.53 422.15 1095.23 397.475 1095.23 369.825C1095.23 341.825 1101.36 317.15 1113.61 295.8C1126.21 274.1 1143.36 257.125 1165.06 244.875C1187.11 232.625 1212.13 226.5 1240.13 226.5C1267.43 226.5 1291.76 232.45 1313.11 244.35C1334.46 256.25 1351.26 273.05 1363.51 294.75C1375.76 316.45 1381.88 342 1381.88 371.4C1381.88 374.2 1381.71 377.35 1381.36 380.85C1381.36 384.35 1381.18 387.675 1380.83 390.825H1147.21V347.25H1346.18L1320.46 360.9C1320.81 344.8 1317.48 330.625 1310.48 318.375C1303.48 306.125 1293.86 296.5 1281.61 289.5C1269.71 282.5 1255.88 279 1240.13 279C1224.03 279 1209.86 282.5 1197.61 289.5C1185.71 296.5 1176.26 306.3 1169.26 318.9C1162.61 331.15 1159.28 345.675 1159.28 362.475V372.975C1159.28 389.775 1163.13 404.65 1170.83 417.6C1178.53 430.55 1189.38 440.525 1203.38 447.525C1217.38 454.525 1233.48 458.025 1251.68 458.025C1267.43 458.025 1281.61 455.575 1294.21 450.675C1306.81 445.775 1318.01 438.075 1327.81 427.575L1362.98 468C1350.38 482.7 1334.46 494.075 1315.21 502.125C1296.31 509.825 1274.61 513.675 1250.11 513.675ZM1531.54 513.675C1508.09 513.675 1485.52 510.7 1463.82 504.75C1442.47 498.45 1425.49 490.925 1412.89 482.175L1438.09 432.3C1450.69 440.35 1465.74 447 1483.24 452.25C1500.74 457.5 1518.24 460.125 1535.74 460.125C1556.39 460.125 1571.27 457.325 1580.37 451.725C1589.82 446.125 1594.54 438.6 1594.54 429.15C1594.54 421.45 1591.39 415.675 1585.09 411.825C1578.79 407.625 1570.57 404.475 1560.42 402.375C1550.27 400.275 1538.89 398.35 1526.29 396.6C1514.04 394.85 1501.62 392.575 1489.02 389.775C1476.77 386.625 1465.57 382.25 1455.42 376.65C1445.27 370.7 1437.04 362.825 1430.74 353.025C1424.44 343.225 1421.29 330.275 1421.29 314.175C1421.29 296.325 1426.37 280.925 1436.52 267.975C1446.67 254.675 1460.84 244.525 1479.04 237.525C1497.59 230.175 1519.47 226.5 1544.67 226.5C1563.57 226.5 1582.64 228.6 1601.89 232.8C1621.14 237 1637.07 242.95 1649.67 250.65L1624.47 300.525C1611.17 292.475 1597.69 287.05 1584.04 284.25C1570.74 281.1 1557.44 279.525 1544.14 279.525C1524.19 279.525 1509.32 282.5 1499.52 288.45C1490.07 294.4 1485.34 301.925 1485.34 311.025C1485.34 319.425 1488.49 325.725 1494.79 329.925C1501.09 334.125 1509.32 337.45 1519.47 339.9C1529.62 342.35 1540.82 344.45 1553.07 346.2C1565.67 347.6 1578.09 349.875 1590.34 353.025C1602.59 356.175 1613.79 360.55 1623.94 366.15C1634.44 371.4 1642.84 378.925 1649.14 388.725C1655.44 398.525 1658.59 411.3 1658.59 427.05C1658.59 444.55 1653.34 459.775 1642.84 472.725C1632.69 485.675 1618.17 495.825 1599.27 503.175C1580.37 510.175 1557.79 513.675 1531.54 513.675ZM1820.63 513.675C1789.83 513.675 1766.03 505.8 1749.23 490.05C1732.43 473.95 1724.03 450.325 1724.03 419.175V167.7H1789.66V417.6C1789.66 430.9 1792.98 441.225 1799.63 448.575C1806.63 455.925 1816.26 459.6 1828.51 459.6C1843.21 459.6 1855.46 455.75 1865.26 448.05L1883.63 494.775C1875.93 501.075 1866.48 505.8 1855.28 508.95C1844.08 512.1 1832.53 513.675 1820.63 513.675ZM1677.83 284.25V231.75H1864.73V284.25H1677.83Z" fill="white"/>
<path d="M2149.1 613.525C2123.2 613.525 2097.83 610.025 2072.98 603.025C2048.48 596.375 2028.35 586.575 2012.6 573.625L2042 524.275C2054.25 534.425 2069.65 542.475 2088.2 548.425C2107.1 554.725 2126.18 557.875 2145.43 557.875C2176.23 557.875 2198.8 550.7 2213.15 536.35C2227.5 522.35 2234.68 501.175 2234.68 472.825V422.95L2239.93 359.425L2237.83 295.9V227.65H2300.3V465.475C2300.3 516.225 2287.35 553.5 2261.45 577.3C2235.55 601.45 2198.1 613.525 2149.1 613.525ZM2140.7 495.4C2114.1 495.4 2089.95 489.8 2068.25 478.6C2046.9 467.05 2029.93 451.125 2017.33 430.825C2005.08 410.525 1998.95 386.725 1998.95 359.425C1998.95 332.475 2005.08 308.85 2017.33 288.55C2029.93 268.25 2046.9 252.5 2068.25 241.3C2089.95 230.1 2114.1 224.5 2140.7 224.5C2164.5 224.5 2185.85 229.225 2204.75 238.675C2223.65 248.125 2238.7 262.825 2249.9 282.775C2261.45 302.725 2267.23 328.275 2267.23 359.425C2267.23 390.575 2261.45 416.3 2249.9 436.6C2238.7 456.55 2223.65 471.425 2204.75 481.225C2185.85 490.675 2164.5 495.4 2140.7 495.4ZM2150.68 439.75C2167.13 439.75 2181.83 436.425 2194.78 429.775C2207.73 422.775 2217.7 413.325 2224.7 401.425C2232.05 389.175 2235.73 375.175 2235.73 359.425C2235.73 343.675 2232.05 329.85 2224.7 317.95C2217.7 305.7 2207.73 296.425 2194.78 290.125C2181.83 283.475 2167.13 280.15 2150.68 280.15C2134.23 280.15 2119.35 283.475 2106.05 290.125C2093.1 296.425 2082.95 305.7 2075.6 317.95C2068.6 329.85 2065.1 343.675 2065.1 359.425C2065.1 375.175 2068.6 389.175 2075.6 401.425C2082.95 413.325 2093.1 422.775 2106.05 429.775C2119.35 436.425 2134.23 439.75 2150.68 439.75ZM2518.35 511.675C2487.2 511.675 2459.9 505.55 2436.45 493.3C2413.35 480.7 2395.33 463.55 2382.38 441.85C2369.78 420.15 2363.48 395.475 2363.48 367.825C2363.48 339.825 2369.6 315.15 2381.85 293.8C2394.45 272.1 2411.6 255.125 2433.3 242.875C2455.35 230.625 2480.38 224.5 2508.38 224.5C2535.68 224.5 2560 230.45 2581.35 242.35C2602.7 254.25 2619.5 271.05 2631.75 292.75C2644 314.45 2650.13 340 2650.13 369.4C2650.13 372.2 2649.95 375.35 2649.6 378.85C2649.6 382.35 2649.43 385.675 2649.08 388.825H2415.45V345.25H2614.43L2588.7 358.9C2589.05 342.8 2585.73 328.625 2578.73 316.375C2571.73 304.125 2562.1 294.5 2549.85 287.5C2537.95 280.5 2524.13 277 2508.38 277C2492.28 277 2478.1 280.5 2465.85 287.5C2453.95 294.5 2444.5 304.3 2437.5 316.9C2430.85 329.15 2427.53 343.675 2427.53 360.475V370.975C2427.53 387.775 2431.38 402.65 2439.08 415.6C2446.78 428.55 2457.63 438.525 2471.63 445.525C2485.63 452.525 2501.73 456.025 2519.93 456.025C2535.68 456.025 2549.85 453.575 2562.45 448.675C2575.05 443.775 2586.25 436.075 2596.05 425.575L2631.23 466C2618.63 480.7 2602.7 492.075 2583.45 500.125C2564.55 507.825 2542.85 511.675 2518.35 511.675ZM2872.24 224.5C2894.64 224.5 2914.59 228.875 2932.09 237.625C2949.94 246.375 2963.94 259.85 2974.09 278.05C2984.24 295.9 2989.31 319 2989.31 347.35V508H2923.69V355.75C2923.69 330.9 2917.74 312.35 2905.84 300.1C2894.29 287.85 2878.01 281.725 2857.01 281.725C2841.61 281.725 2827.96 284.875 2816.06 291.175C2804.16 297.475 2794.89 306.925 2788.24 319.525C2781.94 331.775 2778.79 347.35 2778.79 366.25V508H2713.16V227.65H2775.64V303.25L2764.61 280.15C2774.41 262.3 2788.59 248.65 2807.14 239.2C2826.04 229.4 2847.74 224.5 2872.24 224.5ZM3072.56 508V227.65H3138.19V508H3072.56ZM3105.64 181.45C3093.39 181.45 3083.24 177.6 3075.19 169.9C3067.49 162.2 3063.64 152.925 3063.64 142.075C3063.64 130.875 3067.49 121.6 3075.19 114.25C3083.24 106.55 3093.39 102.7 3105.64 102.7C3117.89 102.7 3127.86 106.375 3135.56 113.725C3143.61 120.725 3147.64 129.65 3147.64 140.5C3147.64 152.05 3143.79 161.85 3136.09 169.9C3128.39 177.6 3118.24 181.45 3105.64 181.45ZM3342.97 511.675C3319.17 511.675 3298.17 507.3 3279.97 498.55C3261.77 489.45 3247.6 475.8 3237.45 457.6C3227.3 439.05 3222.22 415.775 3222.22 387.775V227.65H3287.85V378.85C3287.85 404.05 3293.45 422.95 3304.65 435.55C3316.2 447.8 3332.47 453.925 3353.47 453.925C3368.87 453.925 3382.17 450.775 3393.37 444.475C3404.92 438.175 3413.85 428.725 3420.15 416.125C3426.8 403.525 3430.12 387.95 3430.12 369.4V227.65H3495.75V508H3433.27V432.4L3444.3 455.5C3434.85 473.7 3421.02 487.7 3402.82 497.5C3384.62 506.95 3364.67 511.675 3342.97 511.675ZM3668.29 511.675C3644.84 511.675 3622.27 508.7 3600.57 502.75C3579.22 496.45 3562.24 488.925 3549.64 480.175L3574.84 430.3C3587.44 438.35 3602.49 445 3619.99 450.25C3637.49 455.5 3654.99 458.125 3672.49 458.125C3693.14 458.125 3708.02 455.325 3717.12 449.725C3726.57 444.125 3731.29 436.6 3731.29 427.15C3731.29 419.45 3728.14 413.675 3721.84 409.825C3715.54 405.625 3707.32 402.475 3697.17 400.375C3687.02 398.275 3675.64 396.35 3663.04 394.6C3650.79 392.85 3638.37 390.575 3625.77 387.775C3613.52 384.625 3602.32 380.25 3592.17 374.65C3582.02 368.7 3573.79 360.825 3567.49 351.025C3561.19 341.225 3558.04 328.275 3558.04 312.175C3558.04 294.325 3563.12 278.925 3573.27 265.975C3583.42 252.675 3597.59 242.525 3615.79 235.525C3634.34 228.175 3656.22 224.5 3681.42 224.5C3700.32 224.5 3719.39 226.6 3738.64 230.8C3757.89 235 3773.82 240.95 3786.42 248.65L3761.22 298.525C3747.92 290.475 3734.44 285.05 3720.79 282.25C3707.49 279.1 3694.19 277.525 3680.89 277.525C3660.94 277.525 3646.07 280.5 3636.27 286.45C3626.82 292.4 3622.09 299.925 3622.09 309.025C3622.09 317.425 3625.24 323.725 3631.54 327.925C3637.84 332.125 3646.07 335.45 3656.22 337.9C3666.37 340.35 3677.57 342.45 3689.82 344.2C3702.42 345.6 3714.84 347.875 3727.09 351.025C3739.34 354.175 3750.54 358.55 3760.69 364.15C3771.19 369.4 3779.59 376.925 3785.89 386.725C3792.19 396.525 3795.34 409.3 3795.34 425.05C3795.34 442.55 3790.09 457.775 3779.59 470.725C3769.44 483.675 3754.92 493.825 3736.02 501.175C3717.12 508.175 3694.54 511.675 3668.29 511.675Z" fill="#00FF75"/>
<path fill-rule="evenodd" clip-rule="evenodd" d="M68.6113 76.3833C54.8042 76.3833 43.6113 87.5761 43.6113 101.383V589.494C43.6113 603.301 54.8042 614.494 68.6113 614.494H556.722C570.529 614.494 581.722 603.301 581.722 589.494V101.383C581.722 87.5762 570.529 76.3833 556.722 76.3833H68.6113ZM139.328 157.1C131.044 157.1 124.328 163.816 124.328 172.1V518.777C124.328 527.062 131.044 533.777 139.328 533.777H486.006C494.29 533.777 501.006 527.062 501.006 518.777V172.1C501.006 163.816 494.29 157.1 486.006 157.1H139.328Z" fill="#00FF75"/>
<path fill-rule="evenodd" clip-rule="evenodd" d="M61.0042 213.081C48.1467 198.647 26.0228 197.369 11.589 210.227C4.75875 216.311 0.874505 224.47 0.0401046 232.908L61.1334 235.933L0 239.405C0.627772 246.662 3.51758 253.785 8.73487 259.642L33.0548 286.943H97.4791C98.3706 286.943 99.0934 287.666 99.0934 288.558C99.0934 289.449 98.3706 290.172 97.4791 290.172H35.9308L188.657 461.622L279.607 466.125L196.855 470.825L219.838 496.626C232.696 511.06 254.819 512.338 269.253 499.48C271.492 497.486 273.413 495.27 275.015 492.893L240.078 489.921L278.347 486.666C283.272 474.672 281.312 460.398 272.107 450.065L222.796 394.708L174.428 391.875L217.999 389.323L183.527 350.625L108.779 347.748L178.571 345.062L151.273 314.416L108.779 309.005L142.614 304.695L61.0042 213.081Z" fill="#989898"/>
<path fill-rule="evenodd" clip-rule="evenodd" d="M368.914 398.472C332.659 433.464 305.267 463.851 289.82 485.69L240.08 489.921L284.451 493.695C274.111 509.955 252.559 514.804 236.247 504.515C224.064 496.831 218.241 482.871 220.332 469.49L279.608 466.123L221.905 463.266C222.758 460.853 223.892 458.497 225.315 456.24C243.98 426.646 278.723 388.236 320.301 348.105C337.593 331.415 356.401 314.111 376.252 296.63H437.566C438.457 296.63 439.18 295.907 439.18 295.016C439.18 294.124 438.457 293.402 437.566 293.402H379.928C402.596 273.544 426.569 253.494 451.155 233.892L510.203 229.477L460.924 226.153C462.954 224.555 464.987 222.961 467.023 221.371C483.123 208.798 499.469 196.431 515.87 184.455L557.564 182.013L522.089 179.935C557.934 154 593.929 130.037 628.09 109.953C641.263 102.208 654.409 94.8904 667.371 88.1917L743.843 85.806L676.231 83.6966C709.986 66.896 742.236 54.6504 770.175 50.4025C783.129 48.4329 795.503 53.8348 803.036 63.4719L767.427 66.8607L807.372 70.6621C808.64 73.4888 809.55 76.532 810.038 79.7439C812.944 98.8543 799.807 116.702 780.697 119.607C764.055 122.137 742.275 129.736 716.469 141.975L675.949 144.348L707.75 146.211C694.007 153.04 679.229 161.088 663.568 170.296C662.725 170.791 661.881 171.289 661.036 171.79H625.905C625.013 171.79 624.291 172.513 624.291 173.404C624.291 174.296 625.013 175.019 625.905 175.019H655.626C609.366 202.833 558.957 238.392 510.107 276.541C478.001 301.614 446.779 327.642 418.074 353.087L348.778 355.822L412.19 358.326C396.916 371.987 382.406 385.449 368.914 398.472Z" fill="#989898"/>
</svg>
