<svg width="811" height="565" viewBox="0 0 811 565" fill="none" xmlns="http://www.w3.org/2000/svg">
<path fill-rule="evenodd" clip-rule="evenodd" d="M68.6113 26.3833C54.8042 26.3833 43.6113 37.5761 43.6113 51.3833V539.494C43.6113 553.301 54.8042 564.494 68.6113 564.494H556.722C570.529 564.494 581.722 553.301 581.722 539.494V51.3833C581.722 37.5762 570.529 26.3833 556.722 26.3833H68.6113ZM139.328 107.1C131.044 107.1 124.328 113.816 124.328 122.1V468.777C124.328 477.062 131.044 483.777 139.328 483.777H486.006C494.29 483.777 501.006 477.062 501.006 468.777V122.1C501.006 113.816 494.29 107.1 486.006 107.1H139.328Z" fill="#00FF75"/>
<path fill-rule="evenodd" clip-rule="evenodd" d="M61.0042 163.081C48.1467 148.647 26.0228 147.369 11.589 160.227C4.75875 166.311 0.874505 174.47 0.0401046 182.908L61.1334 185.933L0 189.405C0.627772 196.662 3.51758 203.785 8.73487 209.642L33.0548 236.943H97.4791C98.3706 236.943 99.0934 237.666 99.0934 238.558C99.0934 239.449 98.3706 240.172 97.4791 240.172H35.9308L188.657 411.622L279.607 416.125L196.855 420.825L219.838 446.626C232.696 461.06 254.819 462.338 269.253 449.48C271.492 447.486 273.413 445.27 275.015 442.893L240.078 439.921L278.347 436.666C283.272 424.672 281.312 410.398 272.107 400.065L222.796 344.708L174.428 341.875L217.999 339.323L183.527 300.625L108.779 297.748L178.571 295.062L151.273 264.416L108.779 259.005L142.614 254.695L61.0042 163.081Z" fill="#989898"/>
<path fill-rule="evenodd" clip-rule="evenodd" d="M368.914 348.472C332.659 383.464 305.267 413.851 289.82 435.69L240.08 439.921L284.451 443.695C274.111 459.955 252.559 464.804 236.247 454.515C224.064 446.831 218.241 432.871 220.332 419.49L279.608 416.123L221.905 413.266C222.758 410.853 223.892 408.497 225.315 406.24C243.98 376.646 278.723 338.236 320.301 298.105C337.593 281.415 356.401 264.111 376.252 246.63H437.566C438.457 246.63 439.18 245.907 439.18 245.016C439.18 244.124 438.457 243.402 437.566 243.402H379.928C402.596 223.544 426.569 203.494 451.155 183.892L510.203 179.477L460.924 176.153C462.954 174.555 464.987 172.961 467.023 171.371C483.123 158.798 499.469 146.431 515.87 134.455L557.564 132.013L522.089 129.935C557.934 104 593.929 80.0372 628.09 59.9528C641.263 52.2077 654.409 44.8904 667.371 38.1917L743.843 35.806L676.231 33.6966C709.986 16.896 742.236 4.65039 770.175 0.402497C783.129 -1.56705 795.503 3.83478 803.036 13.4719L767.427 16.8607L807.372 20.6621C808.64 23.4888 809.55 26.532 810.038 29.7439C812.944 48.8543 799.807 66.7017 780.697 69.6072C764.055 72.1374 742.275 79.7357 716.469 91.9748L675.949 94.3481L707.75 96.2107C694.007 103.04 679.229 111.088 663.568 120.296C662.725 120.791 661.881 121.289 661.036 121.79H625.905C625.013 121.79 624.291 122.513 624.291 123.404C624.291 124.296 625.013 125.019 625.905 125.019H655.626C609.366 152.833 558.957 188.392 510.107 226.541C478.001 251.614 446.779 277.642 418.074 303.087L348.778 305.822L412.19 308.326C396.916 321.987 382.406 335.449 368.914 348.472Z" fill="#989898"/>
</svg>
